<?xml version="1.0"?>
<svg id="Layer_2" data-name="Layer 2" xmlns="http://www.w3.org/2000/svg" viewBox="0 0 304.45 84.51">
  <defs>
    
  </defs>
  <g id="Layer_1" data-name="Layer 1">
    <g>
      <polygon class="cls-1" points="73.42 0 52.92 52.81 32.21 0 15.83 0 0 84.5 16.89 84.5 26.92 31.59 46.47 84.5 59.16 84.5 78.7 31.59 88.74 84.5 106.14 84.5 89.79 0 73.42 0"></polygon>
      <rect class="cls-1" x="110.46" y="0" width="15.83" height="84.5"></rect>
      <polygon class="cls-1" points="130.61 0 130.61 13.72 149.21 13.72 149.21 84.5 164.94 84.5 164.94 13.72 183.53 13.72 183.53 0 130.61 0"></polygon>
      <g>
        <path class="cls-1" d="M203.69,84.51h-15.83V0h37.6c1.55,0,4.22.11,7.61,1.5,3.3,1.35,7.05,3.37,10.57,6.96,3.51,3.66,5.26,8.94,5.26,15.84s-1.9,12.61-5.7,16.27c-3.8,3.73-7.63,6.09-11.5,7.07-3.87,1.07-6.72,1.6-8.56,1.6l28.11,35.28h-19.03l-25.76-34.87v-15.21l15.73-.1h.85c2.18,0,4.37-.81,6.55-2.42,2.39-1.82,3.58-4.36,3.58-7.6,0-2.96-.99-5.38-2.97-7.27-2.03-1.84-4.7-2.76-8.02-2.76h-18.49v70.25Z"></path>
        <polygon class="cls-1" points="255.56 0 304.45 0 304.45 13.72 271.39 13.72 271.39 35.38 304.14 35.38 304.14 49.1 271.39 49.1 271.39 70.79 304.45 70.79 304.45 84.51 255.56 84.51 255.56 0"></polygon>
      </g>
    </g>
  </g>
</svg>